<svg width="56" height="55" viewBox="0 0 56 55" fill="none" xmlns="http://www.w3.org/2000/svg">
<path d="M2.955 28.45C2.955 27.5573 3.15433 26.76 3.553 26.058C3.96033 25.3473 4.51067 24.797 5.204 24.407C5.906 24.0083 6.69033 23.809 7.557 23.809C8.571 23.809 9.45933 24.069 10.222 24.589C10.9847 25.109 11.5177 25.8283 11.821 26.747H9.728C9.52 26.3137 9.22533 25.9887 8.844 25.772C8.47133 25.5553 8.038 25.447 7.544 25.447C7.01533 25.447 6.543 25.5727 6.127 25.824C5.71967 26.0667 5.399 26.4133 5.165 26.864C4.93967 27.3147 4.827 27.8433 4.827 28.45C4.827 29.048 4.93967 29.5767 5.165 30.036C5.399 30.4867 5.71967 30.8377 6.127 31.089C6.543 31.3317 7.01533 31.453 7.544 31.453C8.038 31.453 8.47133 31.3447 8.844 31.128C9.22533 30.9027 9.52 30.5733 9.728 30.14H11.821C11.5177 31.0673 10.9847 31.791 10.222 32.311C9.468 32.8223 8.57967 33.078 7.557 33.078C6.69033 33.078 5.906 32.883 5.204 32.493C4.51067 32.0943 3.96033 31.544 3.553 30.842C3.15433 30.14 2.955 29.3427 2.955 28.45ZM14.2855 31.557H17.2755V33H12.4655V23.926H14.2855V31.557ZM23.0863 31.271H19.4723L18.8743 33H16.9633L20.2263 23.913H22.3453L25.6083 33H23.6843L23.0863 31.271ZM22.5923 29.815L21.2793 26.019L19.9663 29.815H22.5923ZM29.051 33.091C28.4183 33.091 27.8463 32.9827 27.335 32.766C26.8323 32.5493 26.4336 32.2373 26.139 31.83C25.8443 31.4227 25.6926 30.9417 25.684 30.387H27.634C27.66 30.7597 27.79 31.0543 28.024 31.271C28.2666 31.4877 28.596 31.596 29.012 31.596C29.4366 31.596 29.7703 31.4963 30.013 31.297C30.2556 31.089 30.377 30.8203 30.377 30.491C30.377 30.2223 30.2946 30.0013 30.13 29.828C29.9653 29.6547 29.7573 29.5203 29.506 29.425C29.2633 29.321 28.9253 29.2083 28.492 29.087C27.9026 28.9137 27.4216 28.7447 27.049 28.58C26.685 28.4067 26.3686 28.151 26.1 27.813C25.84 27.4663 25.71 27.007 25.71 26.435C25.71 25.8977 25.8443 25.4297 26.113 25.031C26.3816 24.6323 26.7586 24.329 27.244 24.121C27.7293 23.9043 28.284 23.796 28.908 23.796C29.844 23.796 30.6023 24.0257 31.183 24.485C31.7723 24.9357 32.0973 25.5683 32.158 26.383H30.156C30.1386 26.071 30.0043 25.8153 29.753 25.616C29.5103 25.408 29.1853 25.304 28.778 25.304C28.4226 25.304 28.1366 25.395 27.92 25.577C27.712 25.759 27.608 26.0233 27.608 26.37C27.608 26.6127 27.686 26.8163 27.842 26.981C28.0066 27.137 28.206 27.267 28.44 27.371C28.6826 27.4663 29.0206 27.579 29.454 27.709C30.0433 27.8823 30.5243 28.0557 30.897 28.229C31.2696 28.4023 31.5903 28.6623 31.859 29.009C32.1276 29.3557 32.262 29.8107 32.262 30.374C32.262 30.8593 32.1363 31.31 31.885 31.726C31.6336 32.142 31.2653 32.4757 30.78 32.727C30.2946 32.9697 29.7183 33.091 29.051 33.091ZM36.0629 33.091C35.4302 33.091 34.8582 32.9827 34.3469 32.766C33.8442 32.5493 33.4455 32.2373 33.1509 31.83C32.8562 31.4227 32.7045 30.9417 32.6959 30.387H34.6459C34.6719 30.7597 34.8019 31.0543 35.0359 31.271C35.2785 31.4877 35.6079 31.596 36.0239 31.596C36.4485 31.596 36.7822 31.4963 37.0249 31.297C37.2675 31.089 37.3889 30.8203 37.3889 30.491C37.3889 30.2223 37.3065 30.0013 37.1419 29.828C36.9772 29.6547 36.7692 29.5203 36.5179 29.425C36.2752 29.321 35.9372 29.2083 35.5039 29.087C34.9145 28.9137 34.4335 28.7447 34.0609 28.58C33.6969 28.4067 33.3805 28.151 33.1119 27.813C32.8519 27.4663 32.7219 27.007 32.7219 26.435C32.7219 25.8977 32.8562 25.4297 33.1249 25.031C33.3935 24.6323 33.7705 24.329 34.2559 24.121C34.7412 23.9043 35.2959 23.796 35.9199 23.796C36.8559 23.796 37.6142 24.0257 38.1949 24.485C38.7842 24.9357 39.1092 25.5683 39.1699 26.383H37.1679C37.1505 26.071 37.0162 25.8153 36.7649 25.616C36.5222 25.408 36.1972 25.304 35.7899 25.304C35.4345 25.304 35.1485 25.395 34.9319 25.577C34.7239 25.759 34.6199 26.0233 34.6199 26.37C34.6199 26.6127 34.6979 26.8163 34.8539 26.981C35.0185 27.137 35.2179 27.267 35.4519 27.371C35.6945 27.4663 36.0325 27.579 36.4659 27.709C37.0552 27.8823 37.5362 28.0557 37.9089 28.229C38.2815 28.4023 38.6022 28.6623 38.8709 29.009C39.1395 29.3557 39.2739 29.8107 39.2739 30.374C39.2739 30.8593 39.1482 31.31 38.8969 31.726C38.6455 32.142 38.2772 32.4757 37.7919 32.727C37.3065 32.9697 36.7302 33.091 36.0629 33.091ZM41.7617 23.926V33H39.9417V23.926H41.7617ZM42.2079 28.45C42.2079 27.5573 42.4072 26.76 42.8059 26.058C43.2132 25.3473 43.7636 24.797 44.4569 24.407C45.1589 24.0083 45.9432 23.809 46.8099 23.809C47.8239 23.809 48.7122 24.069 49.4749 24.589C50.2376 25.109 50.7706 25.8283 51.0739 26.747H48.9809C48.7729 26.3137 48.4782 25.9887 48.0969 25.772C47.7242 25.5553 47.2909 25.447 46.7969 25.447C46.2682 25.447 45.7959 25.5727 45.3799 25.824C44.9726 26.0667 44.6519 26.4133 44.4179 26.864C44.1926 27.3147 44.0799 27.8433 44.0799 28.45C44.0799 29.048 44.1926 29.5767 44.4179 30.036C44.6519 30.4867 44.9726 30.8377 45.3799 31.089C45.7959 31.3317 46.2682 31.453 46.7969 31.453C47.2909 31.453 47.7242 31.3447 48.0969 31.128C48.4782 30.9027 48.7729 30.5733 48.9809 30.14H51.0739C50.7706 31.0673 50.2376 31.791 49.4749 32.311C48.7209 32.8223 47.8326 33.078 46.8099 33.078C45.9432 33.078 45.1589 32.883 44.4569 32.493C43.7636 32.0943 43.2132 31.544 42.8059 30.842C42.4072 30.14 42.2079 29.3427 42.2079 28.45Z" fill="white"/>
<rect x="1" y="0.5" width="54" height="54" rx="27" stroke="white"/>
</svg>
