<svg width="56" height="55" viewBox="0 0 56 55" fill="none" xmlns="http://www.w3.org/2000/svg">
<path d="M8.195 21.53C9.295 21.53 10.26 21.745 11.09 22.175C11.93 22.605 12.575 23.22 13.025 24.02C13.485 24.81 13.715 25.73 13.715 26.78C13.715 27.83 13.485 28.75 13.025 29.54C12.575 30.32 11.93 30.925 11.09 31.355C10.26 31.785 9.295 32 8.195 32H4.535V21.53H8.195ZM8.12 30.215C9.22 30.215 10.07 29.915 10.67 29.315C11.27 28.715 11.57 27.87 11.57 26.78C11.57 25.69 11.27 24.84 10.67 24.23C10.07 23.61 9.22 23.3 8.12 23.3H6.635V30.215H8.12ZM16.337 23.225V25.85H19.862V27.515H16.337V30.29H20.312V32H14.237V21.515H20.312V23.225H16.337ZM23.2704 30.335H26.7204V32H21.1704V21.53H23.2704V30.335ZM29.0751 21.53V28.01C29.0751 28.72 29.2601 29.265 29.6301 29.645C30.0001 30.015 30.5201 30.2 31.1901 30.2C31.8701 30.2 32.3951 30.015 32.7651 29.645C33.1351 29.265 33.3201 28.72 33.3201 28.01V21.53H35.4351V27.995C35.4351 28.885 35.2401 29.64 34.8501 30.26C34.4701 30.87 33.9551 31.33 33.3051 31.64C32.6651 31.95 31.9501 32.105 31.1601 32.105C30.3801 32.105 29.6701 31.95 29.0301 31.64C28.4001 31.33 27.9001 30.87 27.5301 30.26C27.1601 29.64 26.9751 28.885 26.9751 27.995V21.53H29.0751ZM42.6841 32L40.4191 28.475L38.3641 32H35.9941L39.2941 26.72L35.9491 21.53H38.3641L40.6291 25.04L42.6691 21.53H45.0391L41.7541 26.795L45.0991 32H42.6841ZM47.7473 23.225V25.85H51.2723V27.515H47.7473V30.29H51.7223V32H45.6473V21.515H51.7223V23.225H47.7473Z" fill="white"/>
<rect x="1" y="0.5" width="54" height="54" rx="27" stroke="white"/>
</svg>
