<svg width="56" height="55" viewBox="0 0 56 55" fill="none" xmlns="http://www.w3.org/2000/svg">
<path d="M14 22.53V24.225H9.635V26.91H12.98V28.575H9.635V33H7.535V22.53H14ZM19.8391 33L17.5291 28.92H16.5391V33H14.4391V22.53H18.3691C19.1791 22.53 19.8691 22.675 20.4391 22.965C21.0091 23.245 21.4341 23.63 21.7141 24.12C22.0041 24.6 22.1491 25.14 22.1491 25.74C22.1491 26.43 21.9491 27.055 21.5491 27.615C21.1491 28.165 20.5541 28.545 19.7641 28.755L22.2691 33H19.8391ZM16.5391 27.345H18.2941C18.8641 27.345 19.2891 27.21 19.5691 26.94C19.8491 26.66 19.9891 26.275 19.9891 25.785C19.9891 25.305 19.8491 24.935 19.5691 24.675C19.2891 24.405 18.8641 24.27 18.2941 24.27H16.5391V27.345ZM25.0985 24.225V26.85H28.6235V28.515H25.0985V31.29H29.0735V33H22.9985V22.515H29.0735V24.225H25.0985ZM33.5469 33.105C32.8169 33.105 32.1569 32.98 31.5669 32.73C30.9869 32.48 30.5269 32.12 30.1869 31.65C29.8469 31.18 29.6719 30.625 29.6619 29.985H31.9119C31.9419 30.415 32.0919 30.755 32.3619 31.005C32.6419 31.255 33.0219 31.38 33.5019 31.38C33.9919 31.38 34.3769 31.265 34.6569 31.035C34.9369 30.795 35.0769 30.485 35.0769 30.105C35.0769 29.795 34.9819 29.54 34.7919 29.34C34.6019 29.14 34.3619 28.985 34.0719 28.875C33.7919 28.755 33.4019 28.625 32.9019 28.485C32.2219 28.285 31.6669 28.09 31.2369 27.9C30.8169 27.7 30.4519 27.405 30.1419 27.015C29.8419 26.615 29.6919 26.085 29.6919 25.425C29.6919 24.805 29.8469 24.265 30.1569 23.805C30.4669 23.345 30.9019 22.995 31.4619 22.755C32.0219 22.505 32.6619 22.38 33.3819 22.38C34.4619 22.38 35.3369 22.645 36.0069 23.175C36.6869 23.695 37.0619 24.425 37.1319 25.365H34.8219C34.8019 25.005 34.6469 24.71 34.3569 24.48C34.0769 24.24 33.7019 24.12 33.2319 24.12C32.8219 24.12 32.4919 24.225 32.2419 24.435C32.0019 24.645 31.8819 24.95 31.8819 25.35C31.8819 25.63 31.9719 25.865 32.1519 26.055C32.3419 26.235 32.5719 26.385 32.8419 26.505C33.1219 26.615 33.5119 26.745 34.0119 26.895C34.6919 27.095 35.2469 27.295 35.6769 27.495C36.1069 27.695 36.4769 27.995 36.7869 28.395C37.0969 28.795 37.2519 29.32 37.2519 29.97C37.2519 30.53 37.1069 31.05 36.8169 31.53C36.5269 32.01 36.1019 32.395 35.5419 32.685C34.9819 32.965 34.3169 33.105 33.5469 33.105ZM46.7075 22.53V33H44.6075V28.545H40.1225V33H38.0225V22.53H40.1225V26.835H44.6075V22.53H46.7075Z" fill="white"/>
<rect x="1" y="0.5" width="54" height="54" rx="27" stroke="white"/>
</svg>
