<svg width="100" height="122" viewBox="0 0 100 122" fill="none" xmlns="http://www.w3.org/2000/svg">
<path d="M9.2348 24.1966L11.9402 21.846L13.3255 23.4402L8.5547 27.5854L1.18787 19.1067L3.25318 17.3123L9.2348 24.1966Z" fill="white"></path>
<path d="M23.3248 17.438C22.376 17.9015 21.3962 18.1072 20.3853 18.055C19.384 17.9981 18.4566 17.6914 17.603 17.1349C16.7544 16.5642 16.0889 15.7853 15.6066 14.7981C15.1243 13.811 14.9212 12.8121 14.9973 11.8014C15.083 10.7861 15.411 9.86603 15.9815 9.04121C16.5616 8.21171 17.3261 7.56518 18.2749 7.10162C19.2237 6.63807 20.1988 6.43475 21.2 6.49165C22.2109 6.54388 23.1335 6.8529 23.9679 7.41872C24.8119 7.97985 25.4751 8.754 25.9573 9.74115C26.4396 10.7283 26.6451 11.732 26.5737 12.7522C26.4976 13.7629 26.1743 14.6806 25.6038 15.5054C25.0333 16.3302 24.2737 16.9744 23.3248 17.438ZM22.2292 15.1953C23.0342 14.802 23.5452 14.2199 23.7622 13.4491C23.9888 12.6736 23.8867 11.845 23.4559 10.9632C23.0205 10.0719 22.4296 9.48212 21.6832 9.1938C20.9418 8.89122 20.1686 8.93658 19.3635 9.3299C18.5489 9.72791 18.026 10.3099 17.7947 11.0758C17.573 11.837 17.6823 12.6681 18.1224 13.569C18.5579 14.4603 19.1463 15.0573 19.8877 15.3598C20.634 15.6482 21.4145 15.5933 22.2292 15.1953Z" fill="white"></path>
<path d="M35.6579 1.3661L36.7278 8.00038C36.8348 8.66381 37.0804 9.14821 37.4646 9.45361C37.8488 9.759 38.3568 9.86074 38.9886 9.75884C39.6205 9.65694 40.076 9.3998 40.3552 8.98741C40.6345 8.57502 40.7206 8.03711 40.6136 7.37369L39.5436 0.739413L42.2447 0.303785L43.3122 6.92226C43.4718 7.91214 43.3962 8.78329 43.0854 9.53571C42.7745 10.2881 42.2891 10.8958 41.6291 11.3588C40.9796 11.8201 40.2178 12.1213 39.3438 12.2622C38.4697 12.4032 37.658 12.3612 36.9087 12.1363C36.1681 11.8992 35.5426 11.4707 35.032 10.8507C34.5198 10.2203 34.1838 9.41008 34.0242 8.42021L32.9568 1.80173L35.6579 1.3661Z" fill="white"></path>
<path d="M61.3188 12.4792L58.6076 12.1119L55.0031 4.63234L54.073 11.4976L51.3618 11.1303L52.8697 0L55.5809 0.3673L59.1811 7.87861L60.1155 0.981614L62.8267 1.34891L61.3188 12.4792Z" fill="white"></path>
<path d="M78.6937 10.6979C78.6684 10.2739 78.5225 9.89354 78.256 9.5569C78.0037 9.21512 77.6457 8.93574 77.182 8.71876C76.3801 8.34356 75.6133 8.30865 74.8816 8.61401C74.1544 8.9097 73.5852 9.49715 73.1738 10.3763C72.7353 11.3135 72.643 12.1653 72.8967 12.9317C73.1647 13.693 73.7431 14.2816 74.632 14.6975C75.2406 14.9823 75.825 15.0673 76.3851 14.9525C76.9549 14.8422 77.472 14.5425 77.9364 14.0532L74.7916 12.5818L75.646 10.7558L81.0371 13.2782L79.9589 15.5824C79.4861 16.1149 78.9031 16.5428 78.2101 16.8663C77.5267 17.1942 76.77 17.3642 75.94 17.3763C75.11 17.3883 74.2699 17.1955 73.4197 16.7977C72.4149 16.3276 71.6181 15.6898 71.0293 14.8843C70.4546 14.0738 70.1282 13.1732 70.0499 12.1827C69.9813 11.1967 70.182 10.2013 70.6522 9.19651C71.1223 8.19172 71.7578 7.39975 72.5587 6.82059C73.3738 6.23629 74.2744 5.90983 75.2604 5.84122C76.2509 5.76295 77.2485 5.95887 78.2533 6.42899C79.4707 6.99856 80.3569 7.7724 80.9121 8.75051C81.4769 9.73313 81.6504 10.8094 81.4327 11.9795L78.6937 10.6979Z" fill="white"></path>
<path d="M92.0984 17.9177L90.6227 19.6452L93.4087 22.025L92.0369 23.6309L89.251 21.2511L87.6506 23.1246L90.8015 25.8162L89.3778 27.4829L84.1465 23.0143L91.4417 14.4739L96.673 18.9425L95.2493 20.6092L92.0984 17.9177Z" fill="white"></path>
<circle cx="50" cy="71.1601" r="50" fill="white"></circle>
<path d="M41.512 55.3361C41.256 54.1521 40.808 53.2721 40.168 52.6961C39.528 52.0881 38.616 51.7841 37.432 51.7841C35.608 51.7841 34.296 52.5841 33.496 54.1841C32.696 55.7521 32.28 58.2481 32.248 61.6721C32.952 60.5521 33.96 59.6721 35.272 59.0321C36.616 58.3921 38.088 58.0721 39.688 58.0721C42.824 58.0721 45.336 59.0641 47.224 61.0481C49.144 63.0321 50.104 65.8001 50.104 69.3521C50.104 71.6881 49.624 73.7361 48.664 75.4961C47.736 77.2561 46.36 78.6321 44.536 79.6241C42.744 80.6161 40.616 81.1121 38.152 81.1121C33.224 81.1121 29.8 79.5761 27.88 76.5041C25.96 73.4001 25 68.9521 25 63.1601C25 57.0801 26.008 52.5681 28.024 49.6241C30.072 46.6481 33.336 45.1601 37.816 45.1601C40.216 45.1601 42.232 45.6401 43.864 46.6001C45.528 47.5281 46.776 48.7601 47.608 50.2961C48.472 51.8321 48.984 53.5121 49.144 55.3361H41.512ZM37.72 64.5521C36.344 64.5521 35.192 64.9681 34.264 65.8001C33.368 66.6001 32.92 67.7521 32.92 69.2561C32.92 70.7921 33.336 71.9921 34.168 72.8561C35.032 73.7201 36.248 74.1521 37.816 74.1521C39.224 74.1521 40.328 73.7361 41.128 72.9041C41.96 72.0401 42.376 70.8721 42.376 69.4001C42.376 67.8961 41.976 66.7121 41.176 65.8481C40.376 64.9841 39.224 64.5521 37.72 64.5521Z" fill="#121212"></path>
<path d="M67.2745 55.3361C67.0185 54.1521 66.5705 53.2721 65.9305 52.6961C65.2905 52.0881 64.3785 51.7841 63.1945 51.7841C61.3705 51.7841 60.0585 52.5841 59.2585 54.1841C58.4585 55.7521 58.0425 58.2481 58.0105 61.6721C58.7145 60.5521 59.7225 59.6721 61.0345 59.0321C62.3785 58.3921 63.8505 58.0721 65.4505 58.0721C68.5865 58.0721 71.0985 59.0641 72.9865 61.0481C74.9065 63.0321 75.8665 65.8001 75.8665 69.3521C75.8665 71.6881 75.3865 73.7361 74.4265 75.4961C73.4985 77.2561 72.1225 78.6321 70.2985 79.6241C68.5065 80.6161 66.3785 81.1121 63.9145 81.1121C58.9865 81.1121 55.5625 79.5761 53.6425 76.5041C51.7225 73.4001 50.7625 68.9521 50.7625 63.1601C50.7625 57.0801 51.7705 52.5681 53.7865 49.6241C55.8345 46.6481 59.0985 45.1601 63.5785 45.1601C65.9785 45.1601 67.9945 45.6401 69.6265 46.6001C71.2905 47.5281 72.5385 48.7601 73.3705 50.2961C74.2345 51.8321 74.7465 53.5121 74.9065 55.3361H67.2745ZM63.4825 64.5521C62.1065 64.5521 60.9545 64.9681 60.0265 65.8001C59.1305 66.6001 58.6825 67.7521 58.6825 69.2561C58.6825 70.7921 59.0985 71.9921 59.9305 72.8561C60.7945 73.7201 62.0105 74.1521 63.5785 74.1521C64.9865 74.1521 66.0905 73.7361 66.8905 72.9041C67.7225 72.0401 68.1385 70.8721 68.1385 69.4001C68.1385 67.8961 67.7385 66.7121 66.9385 65.8481C66.1385 64.9841 64.9865 64.5521 63.4825 64.5521Z" fill="#121212"></path>
<path d="M32.6732 100.217C31.9032 100.217 31.2132 100.092 30.6032 99.8421C29.9932 99.5921 29.5032 99.2221 29.1332 98.7321C28.7732 98.2421 28.5832 97.6521 28.5632 96.9621H31.2932C31.3332 97.3521 31.4682 97.6521 31.6982 97.8621C31.9282 98.0621 32.2282 98.1621 32.5982 98.1621C32.9782 98.1621 33.2782 98.0771 33.4982 97.9071C33.7182 97.7271 33.8282 97.4821 33.8282 97.1721C33.8282 96.9121 33.7382 96.6971 33.5582 96.5271C33.3882 96.3571 33.1732 96.2171 32.9132 96.1071C32.6632 95.9971 32.3032 95.8721 31.8332 95.7321C31.1532 95.5221 30.5982 95.3121 30.1682 95.1021C29.7382 94.8921 29.3682 94.5821 29.0582 94.1721C28.7482 93.7621 28.5932 93.2271 28.5932 92.5671C28.5932 91.5871 28.9482 90.8221 29.6582 90.2721C30.3682 89.7121 31.2932 89.4321 32.4332 89.4321C33.5932 89.4321 34.5282 89.7121 35.2382 90.2721C35.9482 90.8221 36.3282 91.5921 36.3782 92.5821H33.6032C33.5832 92.2421 33.4582 91.9771 33.2282 91.7871C32.9982 91.5871 32.7032 91.4871 32.3432 91.4871C32.0332 91.4871 31.7832 91.5721 31.5932 91.7421C31.4032 91.9021 31.3082 92.1371 31.3082 92.4471C31.3082 92.7871 31.4682 93.0521 31.7882 93.2421C32.1082 93.4321 32.6082 93.6371 33.2882 93.8571C33.9682 94.0871 34.5182 94.3071 34.9382 94.5171C35.3682 94.7271 35.7382 95.0321 36.0482 95.4321C36.3582 95.8321 36.5132 96.3471 36.5132 96.9771C36.5132 97.5771 36.3582 98.1221 36.0482 98.6121C35.7482 99.1021 35.3082 99.4921 34.7282 99.7821C34.1482 100.072 33.4632 100.217 32.6732 100.217ZM45.7117 89.5821V100.112H43.1467V95.7771H39.1567V100.112H36.5917V89.5821H39.1567V93.7071H43.1467V89.5821H45.7117ZM51.0434 100.217C50.0534 100.217 49.1434 99.9871 48.3134 99.5271C47.4934 99.0671 46.8384 98.4271 46.3484 97.6071C45.8684 96.7771 45.6284 95.8471 45.6284 94.8171C45.6284 93.7871 45.8684 92.8621 46.3484 92.0421C46.8384 91.2221 47.4934 90.5821 48.3134 90.1221C49.1434 89.6621 50.0534 89.4321 51.0434 89.4321C52.0334 89.4321 52.9384 89.6621 53.7584 90.1221C54.5884 90.5821 55.2384 91.2221 55.7084 92.0421C56.1884 92.8621 56.4284 93.7871 56.4284 94.8171C56.4284 95.8471 56.1884 96.7771 55.7084 97.6071C55.2284 98.4271 54.5784 99.0671 53.7584 99.5271C52.9384 99.9871 52.0334 100.217 51.0434 100.217ZM51.0434 97.8771C51.8834 97.8771 52.5534 97.5971 53.0534 97.0371C53.5634 96.4771 53.8184 95.7371 53.8184 94.8171C53.8184 93.8871 53.5634 93.1471 53.0534 92.5971C52.5534 92.0371 51.8834 91.7571 51.0434 91.7571C50.1934 91.7571 49.5134 92.0321 49.0034 92.5821C48.5034 93.1321 48.2534 93.8771 48.2534 94.8171C48.2534 95.7471 48.5034 96.4921 49.0034 97.0521C49.5134 97.6021 50.1934 97.8771 51.0434 97.8771ZM63.9304 89.5821V91.6371H61.1404V100.112H58.5754V91.6371H55.7854V89.5821H63.9304ZM67.5277 100.217C66.7577 100.217 66.0677 100.092 65.4577 99.8421C64.8477 99.5921 64.3577 99.2221 63.9877 98.7321C63.6277 98.2421 63.4377 97.6521 63.4177 96.9621H66.1477C66.1877 97.3521 66.3227 97.6521 66.5527 97.8621C66.7827 98.0621 67.0827 98.1621 67.4527 98.1621C67.8327 98.1621 68.1327 98.0771 68.3527 97.9071C68.5727 97.7271 68.6827 97.4821 68.6827 97.1721C68.6827 96.9121 68.5927 96.6971 68.4127 96.5271C68.2427 96.3571 68.0277 96.2171 67.7677 96.1071C67.5177 95.9971 67.1577 95.8721 66.6877 95.7321C66.0077 95.5221 65.4527 95.3121 65.0227 95.1021C64.5927 94.8921 64.2227 94.5821 63.9127 94.1721C63.6027 93.7621 63.4477 93.2271 63.4477 92.5671C63.4477 91.5871 63.8027 90.8221 64.5127 90.2721C65.2227 89.7121 66.1477 89.4321 67.2877 89.4321C68.4477 89.4321 69.3827 89.7121 70.0927 90.2721C70.8027 90.8221 71.1827 91.5921 71.2327 92.5821H68.4577C68.4377 92.2421 68.3127 91.9771 68.0827 91.7871C67.8527 91.5871 67.5577 91.4871 67.1977 91.4871C66.8877 91.4871 66.6377 91.5721 66.4477 91.7421C66.2577 91.9021 66.1627 92.1371 66.1627 92.4471C66.1627 92.7871 66.3227 93.0521 66.6427 93.2421C66.9627 93.4321 67.4627 93.6371 68.1427 93.8571C68.8227 94.0871 69.3727 94.3071 69.7927 94.5171C70.2227 94.7271 70.5927 95.0321 70.9027 95.4321C71.2127 95.8321 71.3677 96.3471 71.3677 96.9771C71.3677 97.5771 71.2127 98.1221 70.9027 98.6121C70.6027 99.1021 70.1627 99.4921 69.5827 99.7821C69.0027 100.072 68.3177 100.217 67.5277 100.217Z" fill="#121212"></path>
</svg>
