<svg width="11" height="12" viewBox="0 0 11 12" fill="none" xmlns="http://www.w3.org/2000/svg">
<path fill-rule="evenodd" clip-rule="evenodd" d="M11 0.958309C11 0.836758 10.9517 0.720185 10.8658 0.634236C10.7798 0.548286 10.6632 0.5 10.5417 0.5H5.04198C4.92043 0.5 4.80386 0.548286 4.71791 0.634236C4.63196 0.720185 4.58367 0.836758 4.58367 0.958309C4.58367 1.07986 4.63196 1.19643 4.71791 1.28238C4.80386 1.36833 4.92043 1.41662 5.04198 1.41662H9.43533L0.134405 10.7166C0.0917934 10.7592 0.0579921 10.8098 0.0349308 10.8655C0.0118695 10.9212 0 10.9809 0 11.0411C0 11.1014 0.0118695 11.161 0.0349308 11.2167C0.0579921 11.2724 0.0917934 11.323 0.134405 11.3656C0.177017 11.4082 0.227604 11.442 0.283279 11.4651C0.338954 11.4881 0.398626 11.5 0.458888 11.5C0.51915 11.5 0.578822 11.4881 0.634497 11.4651C0.690172 11.442 0.740759 11.4082 0.783371 11.3656L10.0834 2.06467V6.45802C10.0834 6.57957 10.1317 6.69614 10.2176 6.78209C10.3036 6.86804 10.4201 6.91633 10.5417 6.91633C10.6632 6.91633 10.7798 6.86804 10.8658 6.78209C10.9517 6.69614 11 6.57957 11 6.45802V0.958309Z" fill="white"></path>
</svg>
